# xmcd CD database file
# Copyright (C) 1993-1996 Ti Kan
#
# Track frame offsets:
# 182
# 17090
# 34195
# 53157
# 76250
# 90092
# 101070
# 119287
# 139585
# 160577
#
# Disc length: 2469 seconds
# Revision: 0
# Processed by: cddbd v1.4b41PL1 Copyright (c) Steve Scherf et al.
# Submitted via: CDSpectrumPro v3.2.327
#
DISCID=6c09a30a
DTITLE=Patsy Thompson - Rainbows Follow Rainy Days
DYEAR=1900
DGENRE=
TTITLE0=Goodbye To You
TTITLE1=Jesus In A Leather Jacket
TTITLE2=Let's Call It A Night
TTITLE3=Rainbows Follow Rainy Days
TTITLE4=If You Wanna Get To Heaven
TTITLE5=Lines Around Your Eyes
TTITLE6=Wishing We Were Close Again
TTITLE7=Don't Cushion The Blow
TTITLE8=Blues For You
TTITLE9=Richest One
EXTD=
EXTT0=
EXTT1=
EXTT2=
EXTT3=
EXTT4=
EXTT5=
EXTT6=
EXTT7=
EXTT8=
EXTT9=
PLAYORDER=
